<svg xmlns="http://www.w3.org/2000/svg" xmlns:xlink="http://www.w3.org/1999/xlink" width="50" zoomAndPan="magnify" viewBox="0 0 37.5 37.499999" height="50" preserveAspectRatio="xMidYMid meet" version="1.0"><defs><clipPath id="0f6783bf08"><path d="M 0 5 L 37 5 L 37 35.828125 L 0 35.828125 Z M 0 5 " clip-rule="nonzero"/></clipPath><clipPath id="77d228b1ee"><path d="M 4 1.042969 L 7 1.042969 L 7 7 L 4 7 Z M 4 1.042969 " clip-rule="nonzero"/></clipPath><clipPath id="15a5de1205"><path d="M 11 1.042969 L 14 1.042969 L 14 7 L 11 7 Z M 11 1.042969 " clip-rule="nonzero"/></clipPath><clipPath id="cc2cc551e2"><path d="M 17 1.042969 L 20 1.042969 L 20 7 L 17 7 Z M 17 1.042969 " clip-rule="nonzero"/></clipPath><clipPath id="e9a61b2b94"><path d="M 23 1.042969 L 26 1.042969 L 26 7 L 23 7 Z M 23 1.042969 " clip-rule="nonzero"/></clipPath><clipPath id="495f3ed5bd"><path d="M 30 1.042969 L 33 1.042969 L 33 7 L 30 7 Z M 30 1.042969 " clip-rule="nonzero"/></clipPath></defs><g clip-path="url(#0f6783bf08)"><path fill="#aac7d4" d="M 36.996094 33.914062 C 36.996094 34.957031 36.144531 35.804688 35.097656 35.804688 L 1.929688 35.804688 C 0.878906 35.804688 0.03125 34.957031 0.03125 33.914062 L 0.03125 7.039062 C 0.03125 5.992188 0.878906 5.148438 1.929688 5.148438 L 35.097656 5.148438 C 36.144531 5.148438 36.996094 5.992188 36.996094 7.039062 L 36.996094 33.914062 " fill-opacity="1" fill-rule="nonzero"/></g><path fill="#e6ecee" d="M 36.933594 31.929688 C 36.933594 33.035156 36.03125 33.933594 34.921875 33.933594 L 2.003906 33.933594 C 0.894531 33.933594 -0.0078125 33.035156 -0.0078125 31.929688 L -0.0078125 5.472656 C -0.0078125 4.363281 0.894531 3.46875 2.003906 3.46875 L 34.921875 3.46875 C 36.03125 3.46875 36.933594 4.363281 36.933594 5.472656 L 36.933594 31.929688 " fill-opacity="1" fill-rule="nonzero"/><path fill="#ee2945" d="M 36.933594 11.789062 L 36.933594 5.472656 C 36.933594 4.363281 36.03125 3.46875 34.921875 3.46875 L 2.003906 3.46875 C 0.894531 3.46875 -0.0078125 4.363281 -0.0078125 5.472656 L -0.0078125 11.789062 L 36.933594 11.789062 " fill-opacity="1" fill-rule="nonzero"/><g clip-path="url(#77d228b1ee)"><path fill="#9ec1cf" d="M 6.828125 5.742188 C 6.828125 6.320312 6.359375 6.785156 5.78125 6.785156 C 5.199219 6.785156 4.730469 6.320312 4.730469 5.742188 L 4.730469 2.109375 C 4.730469 1.535156 5.199219 1.066406 5.78125 1.066406 C 6.359375 1.066406 6.828125 1.535156 6.828125 2.109375 L 6.828125 5.742188 " fill-opacity="1" fill-rule="nonzero"/></g><g clip-path="url(#15a5de1205)"><path fill="#9ec1cf" d="M 13.171875 5.742188 C 13.171875 6.320312 12.699219 6.785156 12.121094 6.785156 C 11.542969 6.785156 11.070312 6.320312 11.070312 5.742188 L 11.070312 2.109375 C 11.070312 1.535156 11.542969 1.066406 12.121094 1.066406 C 12.699219 1.066406 13.171875 1.535156 13.171875 2.109375 L 13.171875 5.742188 " fill-opacity="1" fill-rule="nonzero"/></g><g clip-path="url(#cc2cc551e2)"><path fill="#9ec1cf" d="M 19.511719 5.742188 C 19.511719 6.320312 19.042969 6.785156 18.460938 6.785156 C 17.882812 6.785156 17.414062 6.320312 17.414062 5.742188 L 17.414062 2.109375 C 17.414062 1.535156 17.882812 1.066406 18.460938 1.066406 C 19.042969 1.066406 19.511719 1.535156 19.511719 2.109375 L 19.511719 5.742188 " fill-opacity="1" fill-rule="nonzero"/></g><g clip-path="url(#e9a61b2b94)"><path fill="#9ec1cf" d="M 25.851562 5.742188 C 25.851562 6.320312 25.382812 6.785156 24.804688 6.785156 C 24.222656 6.785156 23.753906 6.320312 23.753906 5.742188 L 23.753906 2.109375 C 23.753906 1.535156 24.222656 1.066406 24.804688 1.066406 C 25.382812 1.066406 25.851562 1.535156 25.851562 2.109375 L 25.851562 5.742188 " fill-opacity="1" fill-rule="nonzero"/></g><g clip-path="url(#495f3ed5bd)"><path fill="#9ec1cf" d="M 32.191406 5.742188 C 32.191406 6.320312 31.722656 6.785156 31.144531 6.785156 C 30.566406 6.785156 30.09375 6.320312 30.09375 5.742188 L 30.09375 2.109375 C 30.09375 1.535156 30.566406 1.066406 31.144531 1.066406 C 31.722656 1.066406 32.191406 1.535156 32.191406 2.109375 L 32.191406 5.742188 " fill-opacity="1" fill-rule="nonzero"/></g><path fill="#89cce7" d="M 6.6875 15.996094 C 6.6875 16.929688 5.925781 17.6875 4.988281 17.6875 C 4.050781 17.6875 3.289062 16.929688 3.289062 15.996094 C 3.289062 15.058594 4.050781 14.300781 4.988281 14.300781 C 5.925781 14.300781 6.6875 15.058594 6.6875 15.996094 " fill-opacity="1" fill-rule="nonzero"/><path fill="#89cce7" d="M 12.078125 15.996094 C 12.078125 16.929688 11.316406 17.6875 10.378906 17.6875 C 9.4375 17.6875 8.679688 16.929688 8.679688 15.996094 C 8.679688 15.058594 9.4375 14.300781 10.378906 14.300781 C 11.316406 14.300781 12.078125 15.058594 12.078125 15.996094 " fill-opacity="1" fill-rule="nonzero"/><path fill="#89cce7" d="M 17.464844 15.996094 C 17.464844 16.929688 16.707031 17.6875 15.769531 17.6875 C 14.828125 17.6875 14.070312 16.929688 14.070312 15.996094 C 14.070312 15.058594 14.828125 14.300781 15.769531 14.300781 C 16.707031 14.300781 17.464844 15.058594 17.464844 15.996094 " fill-opacity="1" fill-rule="nonzero"/><path fill="#89cce7" d="M 22.855469 15.996094 C 22.855469 16.929688 22.09375 17.6875 21.15625 17.6875 C 20.21875 17.6875 19.457031 16.929688 19.457031 15.996094 C 19.457031 15.058594 20.21875 14.300781 21.15625 14.300781 C 22.09375 14.300781 22.855469 15.058594 22.855469 15.996094 " fill-opacity="1" fill-rule="nonzero"/><path fill="#89cce7" d="M 28.246094 15.996094 C 28.246094 16.929688 27.484375 17.6875 26.546875 17.6875 C 25.609375 17.6875 24.847656 16.929688 24.847656 15.996094 C 24.847656 15.058594 25.609375 14.300781 26.546875 14.300781 C 27.484375 14.300781 28.246094 15.058594 28.246094 15.996094 " fill-opacity="1" fill-rule="nonzero"/><path fill="#89cce7" d="M 33.632812 15.996094 C 33.632812 16.929688 32.871094 17.6875 31.933594 17.6875 C 30.996094 17.6875 30.238281 16.929688 30.238281 15.996094 C 30.238281 15.058594 30.996094 14.300781 31.933594 14.300781 C 32.871094 14.300781 33.632812 15.058594 33.632812 15.996094 " fill-opacity="1" fill-rule="nonzero"/><path fill="#89cce7" d="M 6.6875 20.476562 C 6.6875 21.410156 5.925781 22.167969 4.988281 22.167969 C 4.050781 22.167969 3.289062 21.410156 3.289062 20.476562 C 3.289062 19.542969 4.050781 18.785156 4.988281 18.785156 C 5.925781 18.785156 6.6875 19.542969 6.6875 20.476562 " fill-opacity="1" fill-rule="nonzero"/><path fill="#89cce7" d="M 12.078125 20.476562 C 12.078125 21.410156 11.316406 22.167969 10.378906 22.167969 C 9.4375 22.167969 8.679688 21.410156 8.679688 20.476562 C 8.679688 19.542969 9.4375 18.785156 10.378906 18.785156 C 11.316406 18.785156 12.078125 19.542969 12.078125 20.476562 " fill-opacity="1" fill-rule="nonzero"/><path fill="#89cce7" d="M 17.464844 20.476562 C 17.464844 21.410156 16.707031 22.167969 15.769531 22.167969 C 14.828125 22.167969 14.070312 21.410156 14.070312 20.476562 C 14.070312 19.542969 14.828125 18.785156 15.769531 18.785156 C 16.707031 18.785156 17.464844 19.542969 17.464844 20.476562 " fill-opacity="1" fill-rule="nonzero"/><path fill="#39b2e2" d="M 22.855469 20.476562 C 22.855469 21.410156 22.09375 22.167969 21.15625 22.167969 C 20.21875 22.167969 19.457031 21.410156 19.457031 20.476562 C 19.457031 19.542969 20.21875 18.785156 21.15625 18.785156 C 22.09375 18.785156 22.855469 19.542969 22.855469 20.476562 " fill-opacity="1" fill-rule="nonzero"/><path fill="#89cce7" d="M 28.246094 20.476562 C 28.246094 21.410156 27.484375 22.167969 26.546875 22.167969 C 25.609375 22.167969 24.847656 21.410156 24.847656 20.476562 C 24.847656 19.542969 25.609375 18.785156 26.546875 18.785156 C 27.484375 18.785156 28.246094 19.542969 28.246094 20.476562 " fill-opacity="1" fill-rule="nonzero"/><path fill="#89cce7" d="M 33.632812 20.476562 C 33.632812 21.410156 32.871094 22.167969 31.933594 22.167969 C 30.996094 22.167969 30.238281 21.410156 30.238281 20.476562 C 30.238281 19.542969 30.996094 18.785156 31.933594 18.785156 C 32.871094 18.785156 33.632812 19.542969 33.632812 20.476562 " fill-opacity="1" fill-rule="nonzero"/><path fill="#89cce7" d="M 6.6875 24.957031 C 6.6875 25.890625 5.925781 26.648438 4.988281 26.648438 C 4.050781 26.648438 3.289062 25.890625 3.289062 24.957031 C 3.289062 24.023438 4.050781 23.265625 4.988281 23.265625 C 5.925781 23.265625 6.6875 24.023438 6.6875 24.957031 " fill-opacity="1" fill-rule="nonzero"/><path fill="#89cce7" d="M 12.078125 24.957031 C 12.078125 25.890625 11.316406 26.648438 10.378906 26.648438 C 9.4375 26.648438 8.679688 25.890625 8.679688 24.957031 C 8.679688 24.023438 9.4375 23.265625 10.378906 23.265625 C 11.316406 23.265625 12.078125 24.023438 12.078125 24.957031 " fill-opacity="1" fill-rule="nonzero"/><path fill="#89cce7" d="M 17.464844 24.957031 C 17.464844 25.890625 16.707031 26.648438 15.769531 26.648438 C 14.828125 26.648438 14.070312 25.890625 14.070312 24.957031 C 14.070312 24.023438 14.828125 23.265625 15.769531 23.265625 C 16.707031 23.265625 17.464844 24.023438 17.464844 24.957031 " fill-opacity="1" fill-rule="nonzero"/><path fill="#89cce7" d="M 22.855469 24.957031 C 22.855469 25.890625 22.09375 26.648438 21.15625 26.648438 C 20.21875 26.648438 19.457031 25.890625 19.457031 24.957031 C 19.457031 24.023438 20.21875 23.265625 21.15625 23.265625 C 22.09375 23.265625 22.855469 24.023438 22.855469 24.957031 " fill-opacity="1" fill-rule="nonzero"/><path fill="#89cce7" d="M 28.246094 24.957031 C 28.246094 25.890625 27.484375 26.648438 26.546875 26.648438 C 25.609375 26.648438 24.847656 25.890625 24.847656 24.957031 C 24.847656 24.023438 25.609375 23.265625 26.546875 23.265625 C 27.484375 23.265625 28.246094 24.023438 28.246094 24.957031 " fill-opacity="1" fill-rule="nonzero"/><path fill="#89cce7" d="M 33.632812 24.957031 C 33.632812 25.890625 32.871094 26.648438 31.933594 26.648438 C 30.996094 26.648438 30.238281 25.890625 30.238281 24.957031 C 30.238281 24.023438 30.996094 23.265625 31.933594 23.265625 C 32.871094 23.265625 33.632812 24.023438 33.632812 24.957031 " fill-opacity="1" fill-rule="nonzero"/><path fill="#89cce7" d="M 6.6875 29.4375 C 6.6875 30.371094 5.925781 31.128906 4.988281 31.128906 C 4.050781 31.128906 3.289062 30.371094 3.289062 29.4375 C 3.289062 28.5 4.050781 27.746094 4.988281 27.746094 C 5.925781 27.746094 6.6875 28.5 6.6875 29.4375 " fill-opacity="1" fill-rule="nonzero"/><path fill="#89cce7" d="M 12.078125 29.4375 C 12.078125 30.371094 11.316406 31.128906 10.378906 31.128906 C 9.4375 31.128906 8.679688 30.371094 8.679688 29.4375 C 8.679688 28.5 9.4375 27.746094 10.378906 27.746094 C 11.316406 27.746094 12.078125 28.5 12.078125 29.4375 " fill-opacity="1" fill-rule="nonzero"/><path fill="#89cce7" d="M 17.464844 29.4375 C 17.464844 30.371094 16.707031 31.128906 15.769531 31.128906 C 14.828125 31.128906 14.070312 30.371094 14.070312 29.4375 C 14.070312 28.5 14.828125 27.746094 15.769531 27.746094 C 16.707031 27.746094 17.464844 28.5 17.464844 29.4375 " fill-opacity="1" fill-rule="nonzero"/><path fill="#89cce7" d="M 22.855469 29.4375 C 22.855469 30.371094 22.09375 31.128906 21.15625 31.128906 C 20.21875 31.128906 19.457031 30.371094 19.457031 29.4375 C 19.457031 28.5 20.21875 27.746094 21.15625 27.746094 C 22.09375 27.746094 22.855469 28.5 22.855469 29.4375 " fill-opacity="1" fill-rule="nonzero"/><path fill="#89cce7" d="M 28.246094 29.4375 C 28.246094 30.371094 27.484375 31.128906 26.546875 31.128906 C 25.609375 31.128906 24.847656 30.371094 24.847656 29.4375 C 24.847656 28.5 25.609375 27.746094 26.546875 27.746094 C 27.484375 27.746094 28.246094 28.5 28.246094 29.4375 " fill-opacity="1" fill-rule="nonzero"/><path fill="#89cce7" d="M 33.632812 29.4375 C 33.632812 30.371094 32.871094 31.128906 31.933594 31.128906 C 30.996094 31.128906 30.238281 30.371094 30.238281 29.4375 C 30.238281 28.5 30.996094 27.746094 31.933594 27.746094 C 32.871094 27.746094 33.632812 28.5 33.632812 29.4375 " fill-opacity="1" fill-rule="nonzero"/></svg>